#!OML:ASF H:\Dans Jumps\Project 1\Capture day 1\Session 1\subject.ASF
:FULLY-SPECIFIED
:DEGREES
383
root 1.20507 17.6622 12.7373 4.69828 6.22347 -2.86846
lowerback -3.66018 -0.3657 1.75596
upperback -0.311059 -0.59264 1.89787
thorax 1.73506 -0.288624 0.932452
lowerneck -13.9859 -0.682672 -2.38515
upperneck 15.0294 -0.589971 0.986709
head 6.90657 -0.331819 0.651554
rclavicle -4.5969e-016 -2.88238e-014
rhumerus -25.6586 -17.516 -81.2673
rradius 24.4747
rwrist 41.1474
rhand -23.9745 -25.8802
rfingers 7.12502
rthumb 2.50196 -55.8452
lclavicle -4.5969e-016 -2.88238e-014
lhumerus -28.304 25.2777 71.8228
lradius 9.41202
lwrist -21.8941
lhand -23.025 -5.64108
lfingers 7.12502
lthumb 3.41891 24.3112
rfemur -11.728 -3.57522 21.5368
rtibia 20.6235
rfoot -12.8623 -0.98629
rtoes 14.1805
lfemur -9.76735 7.1826 -17.0283
ltibia 20.1694
lfoot -11.5957 5.56947
ltoes -8.45825
384
root 1.20454 17.6642 12.7727 4.76117 6.21994 -2.85547
lowerback -3.75251 -0.376622 1.73312
upperback -0.322565 -0.608784 1.89592
thorax 1.77526 -0.296682 0.941867
lowerneck -14.0498 -0.674815 -2.41888
upperneck 14.9413 -0.573428 1.00486
head 6.88898 -0.323677 0.664358
rclavicle -5.2181e-016 -7.55382e-015
rhumerus -25.6967 -16.7164 -81.6138
rradius 24.9513
rwrist 40.5251
rhand -24.0257 -25.9365
rfingers 7.12502
rthumb 2.45249 -55.9022
lclavicle -5.2181e-016 -7.55382e-015
lhumerus -28.5637 24.7817 71.9828
lradius 9.41956
lwrist -22.2801
lhand -22.6786 -5.3486
lfingers 7.12502
lthumb 3.75345 24.5981
rfemur -11.6279 -3.5526 21.5334
rtibia 20.5521
rfoot -12.9193 -1.00282
rtoes 14.1325
lfemur -9.59047 7.18432 -17.0028
ltibia 19.9598
lfoot -11.631 5.51401
ltoes -8.46564
385
root 1.2039 17.6659 12.8069 4.82535 6.20599 -2.83088
lowerback -3.84218 -0.384019 1.69642
upperback -0.333134 -0.619472 1.8904
thorax 1.81502 -0.302119 0.955638
lowerneck -14.1041 -0.672164 -2.43955
upperneck 14.8502 -0.56494 1.01131
head 6.86887 -0.319691 0.670432
rclavicle 2.23633e-016 9.93923e-016
rhumerus -25.7228 -16.0202 -81.927
rradius 25.3842
rwrist 39.9983
rhand -24.0491 -26.0192
rfingers 7.12502
rthumb 2.42996 -55.9851
lclavicle 2.23633e-016 9.93923e-016
lhumerus -28.8535 24.2842 72.143
lradius 9.52834
lwrist -22.6313
lhand -22.2443 -5.07716
lfingers 7.12502
lthumb 4.17288 24.8617
rfemur -11.5445 -3.53758 21.5169
rtibia 20.5038
rfoot -12.983 -1.00079
rtoes 14.0898
lfemur -9.42251 7.197 -16.9901
ltibia 19.7601
lfoot -11.6673 5.4522
ltoes -8.47462
386
root 1.20303 17.6671 12.8397 4.8921 6.17987 -2.80398
lowerback -3.93337 -0.386372 1.65339
upperback -0.34198 -0.623178 1.88495
thorax 1.85744 -0.304119 0.973374
lowerneck -14.145 -0.67566 -2.44761
upperneck 14.7532 -0.565279 1.00292
head 6.84464 -0.320544 0.668767
rclavicle -9.93923e-017 -1.8487e-014
rhumerus -25.7281 -15.4434 -82.2028
rradius 25.7584
rwrist 39.5787
rhand -24.1064 -26.0699
rfingers 7.12502
rthumb 2.37457 -56.0364
lclavicle -9.93923e-017 -1.8487e-014
lhumerus -29.1571 23.7793 72.317
lradius 9.72297
lwrist -22.9065
lhand -21.78 -4.88918
lfingers 7.12502
lthumb 4.62123 25.0404
rfemur -11.4801 -3.52102 21.4979
rtibia 20.4752
rfoot -13.0506 -0.985849
rtoes 14.0669
lfemur -9.26819 7.21372 -16.9836
ltibia 19.5729
lfoot -11.697 5.40648
ltoes -8.48101
387
root 1.20223 17.668 12.8716 4.9554 6.14905 -2.77306
lowerback -4.02107 -0.389208 1.60931
upperback -0.352277 -0.627217 1.87788
thorax 1.89641 -0.306318 0.990053
lowerneck -14.1699 -0.681117 -2.44944
upperneck 14.6636 -0.568951 0.988071
head 6.82003 -0.323279 0.663706
rclavicle 2.48481e-017 -6.55989e-015
rhumerus -25.7177 -14.9829 -82.4371
rradius 26.058
rwrist 39.2663
rhand -24.1671 -26.0492
rfingers 7.12502
rthumb 2.31597 -56.0164
lclavicle 2.48481e-017 -6.55989e-015
lhumerus -29.4798 23.2862 72.49
lradius 9.97861
lwrist -23.1029
lhand -21.3293 -4.78854
lfingers 7.12502
lthumb 5.05636 25.1311
rfemur -11.4215 -3.51677 21.4735
rtibia 20.4594
rfoot -13.1244 -0.952927
rtoes 14.0479
lfemur -9.12053 7.22658 -16.9867
ltibia 19.4007
lfoot -11.7234 5.38658
ltoes -8.48982
388
root 1.20153 17.6687 12.9023 5.01939 6.11018 -2.74783
lowerback -4.107 -0.387717 1.5731
upperback -0.368324 -0.625565 1.8714
thorax 1.92837 -0.305658 1.00326
lowerneck -14.1909 -0.685764 -2.45303
upperneck 14.5979 -0.572088 0.977804
head 6.80251 -0.32556 0.660517
rclavicle -1.2598e-014 7.55382e-015
rhumerus -25.6977 -14.6352 -82.6319
rradius 26.2841
rwrist 39.0533
rhand -24.2289 -26.0209
rfingers 7.12502
rthumb 2.25633 -55.9887
lclavicle -1.2598e-014 7.55382e-015
lhumerus -29.8133 22.7922 72.6729
lradius 10.2786
lwrist -23.1888
lhand -20.9064 -4.79503
lfingers 7.12502
lthumb 5.46476 25.1145
rfemur -11.3719 -3.51733 21.4552
rtibia 20.4477
rfoot -13.1969 -0.909924
rtoes 14.0056
lfemur -8.98749 7.22855 -16.9904
ltibia 19.2496
lfoot -11.7453 5.40477
ltoes -8.50144
389
root 1.20095 17.6691 12.932 5.08177 6.0685 -2.73605
lowerback -4.18894 -0.385306 1.55148
upperback -0.3881 -0.623174 1.86964
thorax 1.95416 -0.304557 1.01324
lowerneck -14.205 -0.690041 -2.46612
upperneck 14.553 -0.57389 0.973312
head 6.79053 -0.327326 0.660929
rclavicle 9.30561e-015 -1.55052e-014
rhumerus -25.6609 -14.3733 -82.7933
rradius 26.4344
rwrist 38.9157
rhand -24.3033 -25.9807
rfingers 7.12502
rthumb 2.18443 -55.9492
lclavicle 9.30561e-015 -1.55052e-014
lhumerus -29.8878 21.1765 73.5695
lradius 10.6136
lwrist -21.8517
lhand -20.6764 -4.73069
lfingers 7.12502
lthumb 5.68683 25.173
rfemur -11.325 -3.52089 21.4513
rtibia 20.432
rfoot -13.2663 -0.863647
rtoes 13.9428
lfemur -8.86953 7.21715 -16.9853
ltibia 19.1219
lfoot -11.7633 5.45897
ltoes -8.52299
390
root 1.20024 17.6693 12.96 5.14125 6.02158 -2.74995
lowerback -4.26523 -0.378929 1.55482
upperback -0.408841 -0.616595 1.87514
thorax 1.97558 -0.301201 1.01697
lowerneck -14.2329 -0.689306 -2.48931
upperneck 14.5415 -0.568861 0.983257
head 6.79164 -0.325217 0.668375
rclavicle 6.80837e-015 2.04748e-014
rhumerus -25.6041 -14.1962 -82.9263
rradius 26.5178
rwrist 38.846
rhand -24.3332 -25.9807
rfingers 7.12502
rthumb 2.15556 -55.9495
lclavicle 6.80837e-015 2.04748e-014
lhumerus -29.9577 19.5208 74.5145
lradius 10.9746
lwrist -20.3067
lhand -20.4974 -4.68344
lfingers 7.12502
lthumb 5.85957 25.2155
rfemur -11.2808 -3.50898 21.477
rtibia 20.4066
rfoot -13.327 -0.829881
rtoes 13.8703
lfemur -8.77014 7.19158 -16.9555
ltibia 19.0196
lfoot -11.7772 5.54482
ltoes -8.54286
391
root 1.19958 17.6693 12.9866 5.19756 5.97276 -2.78502
lowerback -4.34064 -0.369709 1.58028
upperback -0.427833 -0.607421 1.88609
thorax 1.9981 -0.296377 1.01408
lowerneck -14.2593 -0.686529 -2.50488
upperneck 14.5387 -0.561615 0.986744
head 6.7952 -0.322227 0.672728
rclavicle 9.74045e-015 -9.93923e-015
rhumerus -25.5273 -14.096 -83.0328
rradius 26.5355
rwrist 38.8258
rhand -24.3609 -25.9757
rfingers 7.12502
rthumb 2.12879 -55.9449
lclavicle 9.74045e-015 -9.93923e-015
lhumerus -30.0222 17.8667 75.4836
lradius 11.3475
lwrist -18.6144
lhand -20.3727 -4.67511
lfingers 7.12502
lthumb 5.97997 25.2205
rfemur -11.2363 -3.49416 21.5261
rtibia 20.3709
rfoot -13.3819 -0.798979
rtoes 13.8051
lfemur -8.68518 7.15488 -16.9048
ltibia 18.9397
lfoot -11.7932 5.65068
ltoes -8.55119
392
root 1.19911 17.6691 13.0122 5.24752 5.92162 -2.83253
lowerback -4.41236 -0.357884 1.61881
upperback -0.444506 -0.595481 1.90062
thorax 2.02084 -0.290071 1.00775
lowerneck -14.2702 -0.685989 -2.5111
upperneck 14.5319 -0.557733 0.97799
head 6.79482 -0.321427 0.671276
rclavicle 6.38596e-015 1.19271e-014
rhumerus -25.4322 -14.0689 -83.1139
rradius 26.4915
rwrist 38.8593
rhand -24.3483 -25.9911
rfingers 7.12502
rthumb 2.14095 -55.9601
lclavicle 6.38596e-015 1.19271e-014
lhumerus -30.0875 16.2454 76.4581
lradius 11.7279
lwrist -16.8298
lhand -20.2749 -4.68093
lfingers 7.12502
lthumb 6.07441 25.212
rfemur -11.187 -3.48789 21.588
rtibia 20.3283
rfoot -13.4345 -0.759126
rtoes 13.763
lfemur -8.60457 7.11204 -16.8416
ltibia 18.8754
lfoot -11.8129 5.76725
ltoes -8.55317
393
root 1.1988 17.6686 13.0366 5.29465 5.86865 -2.87503
lowerback -4.47873 -0.344071 1.65324
upperback -0.460654 -0.580563 1.91298
thorax 2.04113 -0.282313 1.00173
lowerneck -14.2797 -0.686682 -2.50407
upperneck 14.5296 -0.556419 0.957555
head 6.79566 -0.32218 0.663637
rclavicle -1.04486e-014 2.40529e-014
rhumerus -25.3189 -14.1126 -83.1738
rradius 26.3884
rwrist 38.9455
rhand -24.3058 -26.0126
rfingers 7.12502
rthumb 2.18199 -55.9812
lclavicle -1.04486e-014 2.40529e-014
lhumerus -30.1652 14.6969 77.4139
lradius 12.133
lwrist -15.0283
lhand -20.2142 -4.69426
lfingers 7.12502
lthumb 6.13301 25.197
rfemur -11.1382 -3.49508 21.6433
rtibia 20.2848
rfoot -13.4874 -0.704529
rtoes 13.7535
lfemur -8.5261 7.06812 -16.7848
ltibia 18.8152
lfoot -11.8338 5.88484
ltoes -8.56007
394
root 1.19871 17.6679 13.0601 5.34131 5.80982 -2.90521
lowerback -4.54422 -0.32707 1.67642
upperback -0.475161 -0.560809 1.92079
thorax 2.06265 -0.272214 0.997662
lowerneck -14.3094 -0.684825 -2.48678
upperneck 14.5461 -0.553036 0.935395
head 6.8059 -0.321569 0.653974
rclavicle 1.57785e-014 -1.37161e-014
rhumerus -25.1882 -14.2283 -83.2132
rradius 26.2311
rwrist 39.0995
rhand -24.2673 -26.017
rfingers 7.12502
rthumb 2.21918 -55.9852
lclavicle 1.57785e-014 -1.37161e-014
lhumerus -30.2563 13.2532 78.3325
lradius 12.5604
lwrist -13.2929
lhand -20.2031 -4.75562
lfingers 7.12502
lthumb 6.14372 25.1353
rfemur -11.0943 -3.51782 21.6829
rtibia 20.2476
rfoot -13.5432 -0.626415
rtoes 13.8017
lfemur -8.44397 7.02478 -16.7425
ltibia 18.7492
lfoot -11.8543 6.00083
ltoes -8.56503
